<svg data-name="Layer 1" viewBox="0 0 512 512" xmlns="http://www.w3.org/2000/svg"><path d="M442.92 158h-18.17v-18.16a6.26 6.26 0 0 0-6.26-6.26h-22.41v-16.42a6.27 6.27 0 0 0-5.86-6.25c-81.07-5.13-120.7 36.69-134.22 55.29-13.48-18.61-53-60.45-134.23-55.29a6.27 6.27 0 0 0-5.86 6.25v16.42h-22.4a6.26 6.26 0 0 0-6.26 6.26V158H69.08a6.26 6.26 0 0 0-6.26 6.26v231a6.28 6.28 0 0 0 6.26 6.27 6.7 6.7 0 0 0 1.34-.14c1.29-.3 130.28-28 183.05-4.65h.14c.16.06.33.09.49.14a3.29 3.29 0 0 0 .39.17 7.29 7.29 0 0 0 1.12.14H256.29a6.36 6.36 0 0 0 1.22-.15c.12 0 .22-.11.33-.14a5.76 5.76 0 0 0 .59-.18s.07 0 .1 0c52.72-23.3 181.76 4.36 183.05 4.65a6.7 6.7 0 0 0 1.34.14 6.28 6.28 0 0 0 6.26-6.27v-231a6.26 6.26 0 0 0-6.26-6.24Zm-30.69-11.9v210.15c-19.17-4.43-69.41-11-134.69 17.34 18.13-18 53-40.72 111.87-36.86a6.21 6.21 0 0 0 4.69-1.68 6.27 6.27 0 0 0 2-4.57V146.11Zm-28.68-23v200.8c-66.59-2.28-104.09 27.91-121.29 47.72V179.33c5.29-8.98 38.38-59.1 121.29-56.21Zm-255.1 0c82.87-3.05 116 47.23 121.29 56.21v192.3c-16.59-19.09-51.91-47.82-114.27-47.82-2.3 0-4.65 0-7 .11Zm-28.68 23h16.15v184.38a6.27 6.27 0 0 0 2 4.57 6.17 6.17 0 0 0 4.69 1.68c58.7-3.84 93.63 18.86 111.8 36.82-65.25-28.33-115.48-21.72-134.62-17.3ZM75.35 387.58v-217h11.9v193.89a6.26 6.26 0 0 0 8.35 5.9c.53-.19 43.59-14.71 107 4.75-49.51-1.7-106.77 8.43-127.25 12.46Zm361.3 0c-20.45-4-77.57-14.13-127-12.47 63.1-19.25 106.23-4.92 106.75-4.74a6.26 6.26 0 0 0 8.34-5.9V170.53h11.9Z" fill="#e28413" class="fill-000000"></path></svg>