<svg viewBox="0 0 32 32" xmlns="http://www.w3.org/2000/svg"><path d="m8.5 1030.112 2 1h2" transform="translate(0 -1020.362)" fill="none" fill-rule="evenodd" stroke="#e28413" stroke-width="1px" stroke-linecap="butt" stroke-linejoin="miter" stroke-opacity="1" class="stroke-000000"></path><path d="m22 1030.612-.652.326a1 1 0 0 1-.722.067l-2.857-.816a2 2 0 0 0-.55-.077H14.07a2 2 0 0 0-1.664.89l-2.406 3.61h2.465a1 1 0 0 0 .832-.445l.406-.61a1 1 0 0 1 .832-.445h.662a1 1 0 0 1 .555.168l7.649 5.1a1.25 1.25 0 0 1 .306 1.79l-.03.04a1.25 1.25 0 0 1-1.644.322l-4.033-2.42" transform="translate(0 -1020.362)" fill="none" fill-rule="evenodd" stroke="#e28413" stroke-width="1.00157475" stroke-linecap="round" stroke-linejoin="round" stroke-miterlimit="4" stroke-dasharray="none" stroke-opacity="1" class="stroke-000000"></path><path d="m23.5 1038.112 2-2.5M7 1038.112l-2-2" transform="translate(0 -1020.362)" fill="none" fill-rule="evenodd" stroke="#e28413" stroke-width="1px" stroke-linecap="butt" stroke-linejoin="miter" stroke-opacity="1" class="stroke-000000"></path><path d="m9.996 1028.118-5.994 9.494-3.496-1.999" transform="translate(0 -1020.362)" fill="none" fill-rule="evenodd" stroke="#e28413" stroke-width="1px" stroke-linecap="round" stroke-linejoin="round" stroke-opacity="1" class="stroke-000000"></path><path d="m11.006 1037.77.053.034c.455.298.58.904.28 1.36l-1.981 3.008a.985.985 0 0 1-1.364.283l-.053-.035a.977.977 0 0 1-.28-1.359l1.982-3.008a.985.985 0 0 1 1.363-.284z" transform="translate(0 -1020.362)" opacity="1" fill="none" fill-opacity="1" stroke="#e28413" stroke-width="1.0000025" stroke-linecap="round" stroke-linejoin="round" stroke-miterlimit="4" stroke-dasharray="none" stroke-opacity="1" class="stroke-000000"></path><path d="M12.152 1039.724c.464.303.593.92.29 1.384l-1.37 2.092a.998.998 0 0 1-1.384.289.998.998 0 0 1-.29-1.385l1.37-2.091a.998.998 0 0 1 1.384-.29z" transform="translate(0 -1020.362)" opacity="1" fill="none" fill-opacity="1" stroke="#e28413" stroke-width="1" stroke-linecap="round" stroke-linejoin="round" stroke-miterlimit="4" stroke-dasharray="none" stroke-opacity="1" class="stroke-000000"></path><path d="M13.486 1041.269a1 1 0 0 1 .297 1.384l-.89 1.381a1 1 0 0 1-1.679-1.087l.89-1.382a.995.995 0 0 1 1.382-.296zM8.646 1037.755a1 1 0 0 1 .298 1.384l-.891 1.382a1 1 0 0 1-1.679-1.087l.891-1.382a.995.995 0 0 1 1.381-.297z" transform="translate(0 -1020.362)" opacity="1" fill="none" fill-opacity="1" stroke="#e28413" stroke-width="1.00000095" stroke-linecap="round" stroke-linejoin="round" stroke-miterlimit="4" stroke-dasharray="none" stroke-opacity="1" class="stroke-000000"></path><path d="m21.004 1028.118 5.993 9.494 3.497-1.999" transform="translate(0 -1020.362)" fill="none" fill-rule="evenodd" stroke="#e28413" stroke-width="1px" stroke-linecap="round" stroke-linejoin="round" stroke-opacity="1" class="stroke-000000"></path><path d="m22.251 1040.888-.429.592a1.5 1.5 0 0 1-2.009.39L17 1040.112M20.765 1042.37l-.443.61a1.561 1.561 0 0 1-2.038.437L16 1042.112" transform="translate(0 -1020.362)" fill="none" fill-rule="evenodd" stroke="#e28413" stroke-width="1.00157475" stroke-linecap="round" stroke-linejoin="round" stroke-miterlimit="4" stroke-dasharray="none" stroke-opacity="1" class="stroke-000000"></path><path d="m18.407 1043.635-.438.67a1.231 1.231 0 0 1-1.47.476l-2.999-1.146" transform="translate(0 -1020.362)" fill="none" fill-rule="evenodd" stroke="#e28413" stroke-width="1.00157475" stroke-linecap="butt" stroke-linejoin="round" stroke-miterlimit="4" stroke-dasharray="none" stroke-opacity="1" class="stroke-000000"></path><path d="M3.5 1034.612a.5.5 0 0 1-.5.5.5.5 0 0 1-.5-.5.5.5 0 0 1 .5-.5.5.5 0 0 1 .5.5zM28.5 1034.612a.5.5 0 0 1-.5.5.5.5 0 0 1-.5-.5.5.5 0 0 1 .5-.5.5.5 0 0 1 .5.5z" transform="translate(0 -1020.362)" opacity="1" fill="#e28413" fill-opacity="1" stroke="none" stroke-width="1" stroke-linecap="round" stroke-linejoin="round" stroke-miterlimit="4" stroke-dasharray="none" stroke-opacity="1" class="fill-000000"></path></svg>