<?xml version="1.0" encoding="UTF-8" standalone="no"?> <svg xmlns="http://www.w3.org/2000/svg" viewBox="0 0 48 48"><defs><style>.cls-1{fill:#00cf66;}.cls-2{fill:#fac100;}.cls-3{fill:#009ae0;}.cls-4{fill:#fd3730;}</style></defs><title>Psychology</title><g id="_21_-_30" data-name="21 - 30"><g id="Psychology"><path class="cls-1" d="M39.253,23.647A16.775,16.775,0,1,0,8.2,27.788,16.789,16.789,0,0,1,9.776,39.922L8.257,46h16.78l1.048-6.292,7.6.95a3.5,3.5,0,0,0,1.541-.152h0a3.5,3.5,0,0,0,2.393-3.32V32.027a1.049,1.049,0,0,1,.659-.974l3.4-1.36a1.049,1.049,0,0,0,.491-1.544Z"/><path class="cls-2" d="M19.793,15.586a2.622,2.622,0,0,0,4.2,2.1v6.292H17.7a2.623,2.623,0,1,1-4.2,0H6.7A16.758,16.758,0,0,1,23.988,3.033V13.489a2.621,2.621,0,0,0-4.195,2.1Z"/><path class="cls-3" d="M39.257,23.651l.21.325H34.475a2.622,2.622,0,1,0-4.195,0H23.988V17.684a2.623,2.623,0,1,1,0-4.195V3.033A16.746,16.746,0,0,1,39.257,23.651Z"/><path class="cls-4" d="M41.679,29.691l-3.4,1.363a1.05,1.05,0,0,0-.661.976v5.149a3.526,3.526,0,0,1-.661,2.055,3.522,3.522,0,0,1-3.272,1.426l-7.6-.954L25.037,46H23.988V34.463a2.622,2.622,0,1,0,0-4.195V23.976H30.28a2.622,2.622,0,1,1,4.2,0h4.992l2.7,4.174A1.043,1.043,0,0,1,41.679,29.691Z"/></g></g></svg>